<?xml version="1.0" encoding="UTF-8"?>
<svg width="50px" height="50px" viewBox="0 0 50 50" version="1.1" xmlns="http://www.w3.org/2000/svg" xmlns:xlink="http://www.w3.org/1999/xlink">
    <title>assets/images/logos/logo_tagesanzeiger_short</title>
    <g id="Element-Logo" stroke="none" stroke-width="1" fill="none" fill-rule="evenodd">
        <g id="1-Element/Logo/Small/Tagesanzeiger">
            <rect id="Size" x="0" y="0" width="50" height="50"></rect>
            <path d="M32.4904811,4.34782609 C32.4904811,4.34782609 35.2967951,5.87304504 37.0418507,8.85128501 C38.4028943,7.52785775 40.7181969,6.14431591 43.1058723,8.92287877 L43.1058723,8.92287877 L42.5964558,9.4255455 C41.0270287,8.33925369 39.9395665,8.85309751 39.2882121,10.007056 C38.6961285,11.2262645 38.795329,13.0964627 39.0414586,14.4452649 L39.0414586,14.4452649 L43.1954023,37.2410804 C43.3339087,37.9987055 43.7285271,38.7001431 44.4226188,39.2040182 C45.0075275,38.8454452 45.3937232,38.3433826 45.9043875,37.7775805 L45.9043875,37.7775805 L46.5217391,38.3273722 C45.1922026,39.7734453 42.2919913,43.185477 40.9668221,44.7819876 C39.6335422,43.4917896 38.1523974,42.2000811 37.7821112,40.5510079 L37.7821112,40.5510079 L36.2819373,32.5116631 L29.1554096,32.5128714 L28.3667967,36.1472365 C28.8025927,36.1849969 29.2156162,36.2599136 29.6114824,36.366247 C29.921874,36.4487157 30.2204114,36.5514241 30.5095903,36.6725595 C31.6638101,37.1549866 32.6648619,37.9274138 33.6097624,38.8925702 L33.6097624,38.8925702 L34.803912,37.4032992 L35.412529,37.8253096 L30.524252,44.4959147 C30.1605167,43.1996749 29.5696809,41.7958935 28.2888089,41.0899247 C27.8720419,40.8603413 27.3835262,40.7032579 26.8039206,40.6497892 C24.8651432,40.4691433 23.6344953,41.6632789 23.7848558,43.5624771 C23.8082522,43.8310292 23.8725141,44.0793417 23.9657876,44.3113417 C24.5360346,45.7332482 26.2960639,46.4736545 27.7921824,46.5491754 C29.5191448,46.6370816 30.9940506,45.7519773 31.9639073,44.9170189 L31.9639073,44.9170189 L32.548816,45.3719565 C31.3640249,46.7349566 29.6797998,47.4505922 27.7422702,47.3874567 C25.8543408,47.3261338 24.0684196,46.2495087 23.0483388,44.6333626 C22.5061674,43.7736333 22.1770588,42.7643728 22.173913,41.6681122 C22.1726914,41.2757059 22.2160527,40.8999142 22.2927927,40.5392267 C22.547345,39.341164 23.2102415,38.330393 24.136425,37.5733721 C24.4408894,37.3244554 24.770622,37.1003095 25.1262465,36.9090908 C25.7267527,36.5867678 26.3933927,36.3490282 27.10277,36.2091636 L27.10277,36.2091636 L28.2286023,31.2997046 L32.4436884,11.5948062 C32.7412899,10.3133685 33.5361419,6.35909718 32.0213063,4.78101364 L32.0213063,4.78101364 Z M28.9009075,3.47826087 C29.4356043,3.67598301 29.8719072,3.98072907 30.2203477,4.35742906 C31.6812103,5.93708992 31.5737895,8.81373549 30.4454198,10.7075146 C30.1935677,11.1301683 29.8914656,11.504752 29.5442286,11.8040562 C29.2683047,12.0951975 28.949954,12.3542921 28.602717,12.5828517 C28.3935925,12.7204106 28.1748393,12.8467835 27.9470591,12.9613656 C26.5912101,13.6458349 24.9474013,13.930325 23.565976,13.813929 L23.565976,13.813929 L23.5695867,36.4056491 C23.2262615,36.59672 22.9079108,36.9262569 22.6145347,37.1753748 L22.6145347,37.1753748 L22.6145347,13.7072074 C21.9979935,13.5430436 21.3757353,13.3232516 20.8223828,13.096506 L20.8223828,13.096506 L20.8223828,31.6143639 C20.8223828,35.4908063 16.8757973,36.4509982 15.1137353,37.8580301 C16.6236443,39.2067128 18.8487891,39.9679733 20.9827618,40.1605559 C20.6577913,41.4406102 20.7414411,43.212249 21.3333086,44.3006278 C17.1372781,45.5954962 12.8151711,44.1757666 9.68432155,41.3042606 C4.61237533,35.9920652 3.46986348,27.6668745 5.75548898,20.7045759 C7.68424878,15.8954534 12.3993293,12.3065244 17.6142023,12.3065244 L17.6142023,12.3065244 L17.6855153,12.9525981 C13.2562884,14.9618663 11.3988416,19.6993372 10.8277361,24.2212487 C10.3276427,28.7434625 11.3278295,33.4089795 14.1851623,36.8536984 C14.5426298,36.7817444 15.040316,36.3512302 15.1113281,35.9920652 L15.1113281,35.9920652 L15.1137353,16.4695732 C16.7566414,15.2493797 18.5900164,14.1483031 20.3048373,12.8561557 C16.7358794,10.7570963 11.0176031,8.99996919 7.18415537,11.5165428 C5.0378459,12.9259933 4.38489602,15.9535003 6.25588329,17.8333723 L6.25588329,17.8333723 L5.8984158,18.3358405 C3.82703008,17.0433907 3.74037129,14.3058157 4.04096896,12.1632212 C4.52601744,8.70459529 7.88855891,5.59152966 11.1849027,4.77010601 C15.6108197,3.66661086 19.2471788,5.45155206 23.0165352,6.87883989 C23.5018846,7.06235264 23.9896411,7.23951652 24.4810085,7.40428498 C25.5245247,7.75438015 26.5866966,8.04733544 27.6867818,8.21512716 C28.0192747,8.27105774 28.3153589,8.25049947 28.5729281,8.17128969 C29.6916689,7.82663641 30.0924658,6.37032514 29.6865537,5.20062028 C29.5096253,4.68998924 28.890677,4.32628933 28.5446436,4.11072987 L28.5446436,4.11072987 L28.5804505,4.04693878 Z M33.0332764,14.6410149 L30.2257146,27.5783395 L35.3850773,27.5783395 L33.0332764,14.6410149 Z" id="Shape" fill="#1D1D1B"></path>
        </g>
    </g>
</svg>